<svg width="61" height="60" viewBox="0 0 61 60" fill="none" xmlns="http://www.w3.org/2000/svg">
<path d="M55.0499 38.55L48.7999 49.375C47.5749 51.525 45.2999 52.65 42.9999 52.5H37.9999V57.5L31.7499 46.25L37.9999 35V40H45.0499L39.4999 30.375L50.3249 24.125L54.8249 31.925C56.1249 33.85 56.2999 36.425 55.0499 38.55ZM23.5249 7.65002H36.0249C38.4749 7.65002 40.5999 9.07502 41.6249 11.125L44.1249 15.475L48.4499 12.975L41.8499 24L28.9749 24.225L33.2999 21.725L29.7749 15.6L24.2499 25.225L13.3999 18.975L17.8999 11.175C18.9249 9.10002 21.0499 7.65002 23.5249 7.65002ZM13.1249 49.4L6.8749 38.575C5.6499 36.45 5.8249 33.9 7.0999 31.975L9.5999 27.65L5.2749 25.15L18.1249 25.35L24.7499 36.4L20.4249 33.9L16.8999 40H27.9999V52.5H18.9999C17.8287 52.5848 16.6571 52.3392 15.6186 51.7912C14.58 51.2432 13.716 50.4147 13.1249 49.4Z" fill="white"/>
</svg>
