<svg width="61" height="60" viewBox="0 0 61 60" fill="none" xmlns="http://www.w3.org/2000/svg">
<path d="M24.4099 21.825L25.6974 26.4825C26.9099 30.87 27.5149 33.065 29.2974 34.0625C31.0799 35.0625 33.3424 34.4725 37.8674 33.2975L42.6674 32.0475C47.1924 30.8725 49.4549 30.285 50.4849 28.5575C51.5149 26.8275 50.9099 24.6325 49.6949 20.245L48.4099 15.59C47.1974 11.2 46.5899 9.00499 44.8099 8.00749C43.0249 7.00749 40.7624 7.59749 36.2374 8.77499L31.4374 10.02C26.9124 11.195 24.6499 11.785 23.6224 13.515C22.5924 15.2425 23.1974 17.4375 24.4099 21.825Z" fill="white"/>
<path d="M6.19248 13.1174C6.25835 12.88 6.37037 12.6579 6.52214 12.4638C6.67391 12.2696 6.86246 12.1073 7.07699 11.9861C7.29153 11.8649 7.52785 11.7872 7.77245 11.7574C8.01704 11.7276 8.26512 11.7463 8.50248 11.8124L12.76 12.9924C13.888 13.2996 14.9174 13.8933 15.748 14.7161C16.5785 15.5388 17.1821 16.5624 17.5 17.6874L22.8775 37.1524L23.2725 38.5199C24.8669 39.1076 26.2104 40.2261 27.0775 41.6874L27.8525 41.4474L50.0275 35.6849C50.2658 35.6229 50.5141 35.6084 50.758 35.6423C51.002 35.6762 51.2369 35.7578 51.4493 35.8824C51.6617 36.0071 51.8475 36.1724 51.996 36.3688C52.1445 36.5653 52.2529 36.7891 52.315 37.0274C52.377 37.2658 52.3915 37.514 52.3576 37.758C52.3238 38.0019 52.2422 38.2368 52.1175 38.4492C51.9928 38.6616 51.8275 38.8474 51.6311 38.996C51.4346 39.1445 51.2108 39.2529 50.9725 39.3149L28.88 45.0549L28.055 45.3099C28.04 48.4849 25.8475 51.3899 22.53 52.2499C18.555 53.2849 14.4675 50.9949 13.4025 47.1399C12.3375 43.2849 14.6975 39.3174 18.6725 38.2849C18.8708 38.2349 19.0683 38.1916 19.265 38.1549L13.885 18.6849C13.7395 18.1851 13.4675 17.7312 13.0952 17.3673C12.7229 17.0033 12.263 16.7416 11.76 16.6074L7.49998 15.4249C7.26259 15.3593 7.04045 15.2476 6.84626 15.0961C6.65206 14.9446 6.48961 14.7563 6.3682 14.5421C6.24678 14.3278 6.16876 14.0917 6.13861 13.8472C6.10846 13.6028 6.12677 13.3548 6.19248 13.1174Z" fill="white"/>
</svg>
