<svg width="61" height="67" viewBox="0 0 61 67" fill="none" xmlns="http://www.w3.org/2000/svg">
<path d="M49.0628 15C35.9761 26.0423 15.5 28.374 15.5 45.5892C15.5 60.4047 25.5897 65 37.6682 65C48.8544 65 58.5 57.3871 58.5 45.5909C58.5 32.5574 44.4326 26.3844 44.4326 26.3844M45.5 17.5034C45.5 17.5034 39.7353 21.9583 29.0542 20.8112C17.5587 19.5745 11.6413 11.2791 2.5 16.5574C6.62311 5.12394 12.636 2 23.3107 2C33.9854 2 40.7152 10.1084 42.4204 13.2339C33.627 17.9528 28.3649 5.3675 15.4462 10.0644" stroke="white" stroke-width="3.5" stroke-linecap="round" stroke-linejoin="round"/>
</svg>
